<svg id="Capa_1" enable-background="new 0 0 512.031 512.031" height="512" viewBox="0 0 512.031 512.031" width="512" xmlns="http://www.w3.org/2000/svg"><path d="m411.016 321.031c-11.046 0-20 8.954-20 20v51h-271v-352h11c11.046 0 20-8.954 20-20s-8.954-20-20-20h-71c-33.084 0-60 26.916-60 60v392c0 33.084 26.916 60 60 60h351c11.046 0 20-8.954 20-20s-8.954-20-20-20h-351c-11.028 0-20-8.972-20-20s8.972-20 20-20h351c11.046 0 20-8.954 20-20v-71c0-11.046-8.955-20-20-20zm-371 74.44v-335.44c0-11.028 8.972-20 20-20h20v352h-20c-7.012 0-13.741 1.22-20 3.44zm470.785-323.896c-3.07-10.822-11.815-19.711-24.311-24.183l-114.952-41.435c-22.204-7.947-47.672-7.948-69.959.031l-113.996 41.389c-15.771 5.645-25.567 18.267-25.567 32.941s9.797 27.296 25.565 32.94l42.562 15.239c-3.746 11.476-11.128 41.233-11.128 97.533 0 10.424 8.006 19.1 18.396 19.936.436.035 43.189 3.74 86.628 29.47 3.617 2.997 8.161 4.597 12.782 4.597.064 0 .129-.006.194-.006.065.001.129.006.194.006 4.618 0 9.161-1.6 12.777-4.594 43.069-25.496 86.239-29.439 86.632-29.473 10.39-.835 18.396-9.512 18.396-19.936 0-56.461-7.424-86.227-11.16-97.632l28.16-10.01v42.642c0 11.046 8.954 20 20 20s20-8.954 20-20v-82.646c.002-2.395-.441-4.681-1.213-6.809zm-96.044 137.314c-18.169 3.543-47.378 11.328-77.741 27.919-30.363-16.591-59.572-24.376-77.74-27.919 1.213-38.932 6.352-59.649 8.561-66.896l33.827 12.111h.001c11.107 3.976 23.03 5.963 34.948 5.963 11.907 0 23.809-1.983 34.884-5.948l34.661-12.321c2.098 6.797 7.369 27.518 8.599 67.091zm-56.7-92.444c-13.436 4.811-29.478 4.81-42.911 0h.001l-100.996-36.16 100.995-36.668c13.435-4.81 29.476-4.809 42.87-.015l101.769 36.683z"/></svg>