<svg id="Capa_1" enable-background="new 0 0 512 512" height="512" viewBox="0 0 512 512" width="512" xmlns="http://www.w3.org/2000/svg"><path d="m160 277v215c0 11.046-8.954 20-20 20s-20-8.954-20-20v-215c0-11.046 8.954-20 20-20s20 8.954 20 20zm55-197h177c22.056 0 40 17.944 40 40v90c0 11.046 8.954 20 20 20s20-8.954 20-20v-90c0-44.112-35.888-80-80-80h-177c-11.046 0-20 8.954-20 20s8.954 20 20 20zm-155 248c-11.028 0-20-8.972-20-20v-109c0-11.028 8.972-20 20-20h78.593c6.357 0 12.281 2.996 16.047 8.063l55.474 110.886c4.942 9.879 16.957 13.88 26.835 8.938s13.88-16.957 8.938-26.835l-56.125-112.188c-.371-.74-.787-1.457-1.246-2.146-10.533-15.8-27.766-25.587-46.585-26.626-.636-.061-81.931-.092-81.931-.092-33.084 0-60 26.916-60 60v109c0 26.075 16.719 48.318 40 56.573v127.427c0 11.046 8.954 20 20 20s20-8.954 20-20v-144c0-11.046-8.954-20-20-20zm-20-268c0-33.084 26.916-60 60-60s60 26.916 60 60-26.916 60-60 60-60-26.916-60-60zm40 0c0 11.028 8.972 20 20 20s20-8.972 20-20-8.972-20-20-20-20 8.972-20 20zm412 280h-20v-30c0-11.046-8.954-20-20-20s-20 8.954-20 20v30h-212c-11.046 0-20 8.954-20 20s8.954 20 20 20h272c11.046 0 20-8.954 20-20s-8.954-20-20-20z"/></svg>